<?xml version="1.0" standalone="no"?>
<!DOCTYPE svg PUBLIC "-//W3C//DTD SVG 20010904//EN"
 "http://www.w3.org/TR/2001/REC-SVG-20010904/DTD/svg10.dtd">
<svg version="1.0" xmlns="http://www.w3.org/2000/svg"
 width="2907.000000pt" height="1853.000000pt" viewBox="0 0 2907.000000 1853.000000"
 preserveAspectRatio="xMidYMid meet">

<g transform="translate(0.000000,1853.000000) scale(0.100000,-0.100000)"
fill="#000000" stroke="none">
<path d="M8864 15526 c-105 -20 -135 -31 -285 -102 -167 -80 -205 -86 -339
-53 -212 53 -385 20 -537 -99 -132 -105 -215 -329 -184 -497 6 -35 14 -71 17
-79 4 -11 -6 -18 -37 -26 -155 -42 -289 -182 -330 -345 -17 -69 -7 -210 20
-270 12 -27 29 -61 37 -74 l16 -23 35 58 c83 137 200 264 317 341 37 25 80 56
93 69 14 13 42 26 62 30 20 3 70 18 111 34 248 93 539 140 860 140 233 0 403
-19 585 -65 244 -62 402 -148 465 -253 9 -15 17 -10 64 40 65 68 89 131 88
229 0 91 -30 154 -119 255 -82 92 -92 111 -129 224 -34 107 -50 140 -109 218
-80 107 -221 199 -360 236 -84 23 -254 29 -341 12z"/>
<path d="M12000 15465 c-105 -20 -204 -63 -323 -141 -255 -167 -372 -284 -540
-545 -105 -163 -132 -229 -227 -559 -115 -398 -148 -458 -419 -776 -47 -55
-110 -138 -141 -187 l-57 -87 34 -92 c68 -181 95 -380 74 -543 -36 -269 -188
-645 -348 -858 -24 -31 -43 -60 -43 -64 0 -3 36 -3 80 0 l80 6 0 -40 c0 -49
-23 -105 -56 -140 l-25 -26 48 -13 c125 -32 314 -22 463 26 41 13 75 22 77 20
2 -1 -78 -79 -177 -172 -127 -119 -191 -172 -218 -181 -20 -6 -133 -37 -249
-69 l-213 -57 -38 35 c-22 20 -46 39 -54 44 -14 8 -12 27 17 154 48 215 100
500 149 815 l43 280 17 -76 c10 -41 23 -140 30 -220 l13 -144 2 107 c4 362
-139 673 -445 968 -166 160 -313 259 -569 385 -337 165 -635 262 -909 296
-180 22 -535 -4 -571 -42 -7 -8 -4 -9 10 -5 56 17 233 36 332 36 334 0 733
-112 1138 -318 l100 -51 -97 0 c-321 -2 -717 -174 -1059 -460 -268 -224 -614
-670 -765 -986 -58 -122 -72 -161 -55 -151 6 4 11 2 11 -3 0 -7 -22 -11 -53
-11 -146 0 -275 -89 -323 -222 -21 -59 -21 -163 1 -228 13 -39 33 -70 70 -107
46 -45 61 -53 115 -65 61 -12 62 -13 57 -43 -3 -16 -33 -215 -68 -441 l-62
-411 608 -1186 c335 -653 611 -1184 614 -1181 3 2 78 264 168 582 117 414 184
669 234 902 39 179 72 326 73 328 2 1 76 -86 166 -193 109 -130 180 -206 212
-226 67 -43 166 -155 218 -246 83 -145 127 -307 165 -613 23 -182 2 -163 174
-156 264 11 1833 41 2666 51 259 3 596 7 750 9 160 3 265 1 245 -4 -50 -11
-1452 -41 -2950 -61 -470 -6 -856 -12 -858 -14 -1 -1 51 -407 117 -901 66
-494 156 -1180 202 -1524 45 -344 83 -626 84 -627 1 -2 251 15 556 37 669 48
1893 130 1934 130 19 0 26 -3 19 -10 -11 -11 -937 -79 -2406 -176 -65 -4 -98
-11 -98 -18 0 -7 40 -320 90 -696 49 -376 88 -685 86 -687 -4 -4 -187 -44
-366 -80 -325 -64 -391 -76 -620 -109 -135 -19 -324 -48 -420 -64 -96 -17
-192 -33 -214 -35 l-39 -5 7 97 c39 573 113 982 346 1913 102 411 162 683 199
905 85 507 115 967 92 1415 -11 211 -47 599 -57 609 -8 8 -4 -68 13 -246 25
-263 25 -953 0 -1193 -51 -491 -102 -762 -298 -1563 -186 -761 -237 -1028
-290 -1511 -19 -165 -22 -269 -26 -760 -4 -476 -3 -568 8 -563 8 3 69 31 137
63 68 31 126 54 129 50 12 -12 -11 -25 -142 -79 l-130 -54 -3 -861 -2 -862
-1775 0 c-976 0 -1775 3 -1775 6 0 3 36 112 79 242 44 130 100 305 126 387 52
165 235 673 485 1345 89 239 166 447 172 462 6 17 17 28 29 28 45 0 135 45
179 90 54 53 78 108 120 281 39 162 46 217 75 609 94 1292 152 2442 185 3670
14 549 21 1274 10 1165 -5 -49 -13 -319 -20 -600 -22 -1022 -69 -2130 -135
-3190 -40 -632 -94 -1361 -111 -1472 -21 -146 -79 -350 -112 -398 -40 -58
-103 -102 -167 -116 -53 -12 -91 -7 -673 80 -339 51 -652 101 -696 112 -121
29 -171 68 -214 169 -42 99 -43 116 -46 931 -2 486 -10 976 -21 1289 -16 478
-17 1252 -1 1800 4 130 4 135 -4 50 -36 -398 -41 -1204 -15 -2115 10 -345 15
-804 14 -1195 -1 -568 0 -641 15 -688 58 -184 121 -242 299 -279 77 -16 86
-19 82 -38 -3 -11 -30 -155 -60 -320 -122 -656 -240 -1210 -295 -1387 -35
-110 -29 -105 -190 -190 -259 -138 -529 -251 -685 -287 -117 -28 -243 -69
-440 -146 -88 -34 -254 -92 -370 -128 -288 -90 -265 -79 -265 -127 l0 -40
-855 0 -855 0 0 -345 0 -345 14030 0 14030 0 0 345 0 345 -723 0 -724 0 -2
148 c-1 142 -64 2458 -78 2870 -5 161 -4 202 7 202 15 0 12 25 -36 250 -162
756 -399 1577 -631 2185 -197 514 -394 912 -628 1265 -173 261 -532 730 -559
730 -7 0 -37 -23 -65 -52 -67 -67 -113 -163 -146 -303 -65 -283 -86 -341 -157
-432 -46 -61 -162 -143 -235 -167 -102 -34 -257 -37 -337 -6 -47 17 -26 19 49
3 176 -37 392 45 506 194 55 71 82 137 116 283 69 296 123 402 243 481 l24 16
-119 139 c-305 354 -698 770 -1026 1085 -367 353 -550 513 -608 529 -52 15
-310 46 -566 70 -502 45 -1531 118 -1540 108 -3 -3 38 -99 91 -214 58 -128
101 -236 111 -279 38 -180 -24 -330 -246 -596 -246 -295 -524 -476 -804 -525
-109 -19 -290 -14 -382 10 -101 27 -219 91 -292 159 -72 68 -156 187 -175 248
-15 53 -30 64 -56 42 -12 -10 -143 -200 -292 -423 l-271 -405 -48 -150 c-87
-268 -131 -493 -117 -595 4 -25 20 -148 36 -274 l30 -229 292 -716 c160 -394
293 -718 295 -720 8 -10 163 23 239 50 219 80 411 252 516 464 20 39 41 88 48
110 7 22 15 35 17 29 7 -20 -46 -155 -90 -233 -89 -156 -273 -314 -444 -379
-71 -27 -169 -49 -249 -55 l-31 -2 228 -559 228 -558 -44 -92 c-24 -50 -52
-119 -62 -152 l-17 -62 -133 -66 c-73 -36 -137 -66 -142 -66 -5 0 -14 28 -20
62 -55 293 -135 596 -212 802 -54 147 -174 389 -247 501 -181 279 -422 475
-717 586 -50 19 -1657 478 -1662 475 0 0 -9 -199 -19 -441 l-17 -439 -360
-771 c-198 -423 -359 -774 -359 -780 1 -21 264 -1761 267 -1773 3 -7 75 57
167 146 327 319 324 317 678 514 349 195 586 301 866 389 110 34 288 93 397
131 109 38 200 68 202 66 1 -1 76 -239 165 -528 90 -289 165 -530 167 -536 2
-7 -45 -19 -127 -32 -106 -18 -145 -30 -213 -64 l-84 -41 -43 -86 c-110 -222
-140 -255 -389 -422 -129 -86 -135 -89 -190 -89 -160 0 -281 55 -281 129 0 14
-12 24 -47 35 -127 43 -194 108 -238 234 -16 45 -22 51 -39 46 -40 -13 -163
-6 -195 11 -40 20 -85 82 -102 140 -10 34 -17 44 -29 40 -24 -10 -354 -211
-493 -302 -121 -78 -128 -85 -123 -111 3 -15 15 -94 27 -177 12 -82 24 -153
28 -157 3 -4 173 2 376 12 204 11 391 20 417 20 l46 0 409 -350 408 -350 313
0 c344 0 357 -2 387 -60 18 -35 19 -97 1 -128 -7 -13 -26 -32 -42 -43 -29 -19
-86 -19 -3486 -19 l-3458 0 -5 23 c-2 12 -66 438 -140 947 -74 509 -180 1231
-235 1605 -102 690 -105 719 -75 792 22 51 91 119 148 143 l52 23 835 -7 c459
-3 1060 -8 1335 -11 1814 -18 1778 -18 1773 -4 -3 8 -107 325 -232 705 l-226
691 0 434 c-1 537 3 517 -113 577 -108 56 -199 126 -300 231 -208 216 -324
479 -363 826 -8 77 -18 159 -20 182 -5 39 -7 42 -32 38 -68 -12 -626 -55 -692
-54 -23 0 -23 1 -5 8 11 4 179 23 373 41 l352 34 0 67 c0 37 -5 71 -10 74 -16
10 -65 113 -88 185 -24 73 -47 191 -57 293 -4 38 -13 71 -19 73 -24 9 -87 103
-107 160 -28 78 -31 243 -5 364 29 142 106 357 178 500 l67 135 -93 190 c-98
199 -169 323 -235 410 -31 41 -60 64 -137 106 -110 61 -121 77 -130 182 -8 80
14 174 62 269 55 109 83 146 236 306 163 172 226 251 273 347 68 135 76 237
50 590 -9 116 -26 352 -38 525 l-23 315 -82 -325 c-108 -430 -201 -769 -262
-961 -96 -296 -222 -461 -441 -574 -154 -79 -375 -125 -535 -110 l-71 6 -73
-258 c-84 -301 -137 -452 -226 -647 -100 -218 -270 -516 -318 -555 -18 -15
-60 -4 -151 42 -175 87 -364 234 -570 441 -353 355 -558 710 -557 961 0 64 10
116 51 265 91 333 381 1425 381 1435 0 6 -27 16 -60 22 -79 15 -177 61 -229
108 -22 20 -55 67 -73 102 -29 59 -32 75 -32 152 0 208 103 398 241 445 82 28
185 17 294 -31 41 -19 47 -25 63 -77 13 -39 16 -72 12 -109 -19 -168 -19 -182
3 -225 50 -99 173 -95 284 8 109 100 210 289 307 575 114 339 115 341 115 640
0 262 3 291 36 355 49 99 185 160 354 160 148 0 215 -26 417 -163 328 -224
579 -347 707 -349 66 0 169 43 282 118 39 25 71 45 73 43 2 -2 19 -31 38 -64
43 -76 81 -169 111 -274 12 -45 25 -81 30 -81 12 0 8 201 -7 277 -22 118 -81
219 -230 397 -94 112 -218 214 -442 364 -284 189 -375 234 -589 287 -258 65
-575 91 -735 60z m-4822 -3710 c-23 -46 -44 -83 -46 -81 -4 5 76 166 83 166 3
0 -14 -38 -37 -85z m3500 -1080 c-3 -3 -92 -21 -199 -40 -290 -51 -519 -100
-758 -161 -118 -30 -215 -53 -217 -51 -33 33 571 177 971 231 189 26 211 29
203 21z m12197 -2560 c163 -34 277 -89 483 -234 70 -49 151 -101 180 -115 126
-63 265 -72 364 -23 64 32 75 28 16 -6 -65 -38 -123 -50 -205 -43 -122 10
-182 38 -410 194 -151 103 -283 166 -405 194 -77 19 -122 22 -268 22 -156 0
-186 -3 -271 -26 -184 -50 -336 -127 -467 -238 -48 -40 -66 -51 -52 -32 42 56
171 153 275 205 124 61 261 103 405 121 67 8 276 -3 355 -19z m-1160 -734
c-251 -246 -433 -341 -650 -341 -166 0 -274 42 -545 212 -209 130 -255 155
-358 192 -145 52 -284 50 -402 -5 -79 -37 -139 -81 -278 -207 -132 -120 -191
-163 -275 -203 -160 -74 -359 -33 -430 89 -16 27 -10 24 35 -22 69 -69 134
-91 245 -84 98 7 208 61 315 155 42 37 117 104 167 148 156 139 273 194 412
195 157 0 309 -60 558 -220 279 -179 393 -225 556 -225 213 0 399 97 655 340
58 55 107 104 109 108 1 5 6 5 10 2 3 -4 -52 -64 -124 -134z m-8685 -1353 c0
-4 -13 -14 -30 -23 l-30 -16 0 44 c0 24 3 80 7 123 l6 79 23 -100 c13 -55 24
-103 24 -107z m8555 -933 l239 -339 -18 -550 -18 -550 -185 -545 c-101 -301
-218 -625 -259 -721 -53 -127 -117 -314 -229 -674 -85 -274 -155 -502 -155
-507 0 -5 10 -9 23 -9 17 0 36 21 81 90 32 50 61 90 64 90 15 0 982 -534 982
-542 0 -5 -21 -41 -47 -79 l-48 -69 -1635 1 c-1036 0 -1628 4 -1615 10 11 5
91 38 178 72 l157 63 44 70 c276 444 436 1008 436 1539 l0 130 98 34 c218 75
635 226 751 272 161 64 224 96 348 179 420 280 748 610 840 846 52 134 29 337
-77 690 -53 176 -209 601 -291 792 -27 63 -49 116 -49 119 0 3 33 -13 73 -35
l72 -39 240 -338z m-11735 -2864 c-5 -9 -31 -38 -58 -64 l-49 -48 -6 28 c-3
15 -9 56 -12 90 -7 60 -7 61 21 76 28 15 30 15 71 -25 31 -31 40 -45 33 -57z"/>
<path d="M12265 14145 c-22 -8 -41 -15 -42 -15 -2 0 -3 -9 -3 -20 0 -16 22
-26 133 -61 72 -22 179 -61 235 -85 114 -48 152 -55 152 -26 0 55 -118 155
-228 194 -76 27 -195 33 -247 13z"/>
<path d="M18768 14041 c-106 -34 -204 -106 -259 -190 -41 -64 -69 -70 -158
-35 -127 51 -285 43 -413 -22 -111 -56 -226 -213 -244 -332 -6 -40 -19 -61
-82 -134 -42 -49 -79 -88 -83 -88 -3 0 -26 -18 -51 -39 -56 -49 -105 -141
-117 -217 -5 -33 -26 -105 -45 -161 -84 -242 -85 -469 -3 -677 l32 -81 12 190
c17 283 56 449 131 558 45 64 144 126 226 140 61 10 68 9 93 -9 16 -12 43 -41
60 -65 96 -129 150 -169 209 -155 13 4 42 22 63 41 43 39 97 65 137 65 14 0
72 -20 128 -44 133 -57 169 -68 226 -68 54 0 99 20 129 58 l21 26 35 -26 c19
-15 61 -39 93 -54 49 -23 70 -27 152 -27 102 0 140 13 208 70 49 41 78 32 127
-40 34 -50 49 -64 94 -81 54 -22 54 -22 144 -175 49 -85 127 -212 172 -284 46
-71 83 -131 82 -132 -1 -1 -44 -3 -95 -4 l-94 -3 -31 59 c-18 34 -62 91 -102
131 -253 252 -661 207 -861 -93 -71 -108 -105 -277 -82 -409 l8 -41 -59 -1
-58 -1 -7 57 c-16 132 -36 139 -36 12 0 -88 0 -90 -28 -104 -15 -8 -46 -34
-68 -58 l-40 -43 -51 55 c-60 65 -153 123 -243 151 -81 25 -231 27 -305 5 -27
-9 -52 -16 -54 -16 -21 0 211 124 279 150 19 7 43 20 53 28 65 56 -72 97 -193
57 -57 -19 -140 -89 -164 -139 -21 -45 -21 -82 1 -91 14 -5 4 -14 -42 -38
-167 -88 -295 -303 -295 -497 0 -226 163 -453 375 -525 89 -30 205 -40 285
-26 146 26 304 134 376 256 98 168 107 379 23 550 l-32 66 24 25 c27 29 88 69
95 62 2 -3 9 -79 15 -169 17 -266 47 -592 57 -619 17 -45 47 -63 95 -58 47 6
237 85 237 99 0 13 -8 12 -120 -22 -57 -16 -115 -29 -129 -27 -32 4 -34 14
-56 318 -9 124 -23 287 -31 364 -8 76 -13 141 -10 144 4 3 30 7 59 9 l52 5 37
-79 c66 -137 187 -242 332 -289 294 -93 609 68 701 359 29 91 34 228 11 313
l-14 52 107 -6 c66 -3 109 -9 113 -17 27 -45 197 -263 252 -322 118 -127 207
-166 230 -102 8 23 -2 53 -59 185 -61 139 -69 166 -69 219 1 78 30 136 91 178
l45 32 -5 75 c-8 113 -124 423 -272 728 l-84 172 39 59 c52 78 66 134 50 200
-22 91 -107 163 -225 192 -27 6 -55 13 -61 14 -6 2 -14 31 -17 65 -7 77 -45
156 -102 214 -112 111 -278 133 -428 56 l-59 -30 -31 24 c-46 34 -114 67 -172
82 -72 20 -208 17 -277 -5z m547 -1686 c244 -64 421 -305 401 -546 -33 -399
-446 -624 -800 -436 -115 61 -211 183 -252 322 -25 83 -22 219 5 306 53 168
206 313 376 355 70 17 200 17 270 -1z m-1254 -629 c165 -57 288 -188 341 -359
25 -83 22 -232 -7 -312 -53 -154 -187 -287 -340 -340 -30 -11 -93 -20 -160
-23 -99 -4 -118 -2 -181 20 -377 132 -493 612 -212 885 155 150 361 198 559
129z"/>
<path d="M19085 12146 c-80 -25 -153 -83 -186 -147 -18 -37 -26 -89 -13 -89 4
0 35 26 69 59 81 75 152 109 261 123 68 9 84 15 82 27 -7 36 -134 52 -213 27z"/>
<path d="M19026 11779 c-116 -33 -120 -188 -5 -219 65 -18 140 27 153 91 16
80 -67 152 -148 128z"/>
<path d="M17993 11650 c-82 -17 -160 -69 -204 -138 -26 -41 -39 -102 -23 -102
4 0 34 25 67 57 77 70 158 109 261 123 44 5 82 12 84 15 11 11 -22 34 -63 44
-49 12 -62 12 -122 1z"/>
<path d="M17934 11266 c-29 -29 -34 -41 -34 -79 0 -124 168 -157 224 -44 38
79 -17 157 -112 157 -37 0 -50 -6 -78 -34z"/>
<path d="M8585 14030 c-299 -33 -600 -112 -934 -245 -167 -66 -417 -183 -409
-191 3 -3 82 25 174 61 472 187 690 252 1054 316 106 19 164 22 390 23 283 1
398 -10 644 -60 101 -20 143 -24 125 -11 -23 17 -246 68 -399 92 -123 19 -522
28 -645 15z"/>
<path d="M12231 13672 c-57 -28 -51 -42 17 -42 121 0 207 -28 296 -96 51 -39
66 -42 66 -15 0 37 -63 105 -129 138 -55 29 -72 33 -139 33 -54 0 -88 -5 -111
-18z"/>
<path d="M13381 13637 c-40 -14 -61 -41 -45 -57 6 -6 69 -28 141 -50 72 -22
157 -51 189 -65 31 -14 71 -26 88 -28 27 -2 31 2 34 25 6 55 -106 143 -222
174 -62 17 -139 17 -185 1z"/>
<path d="M12975 13425 c-9 -43 -2 -332 17 -698 9 -183 9 -240 0 -249 -9 -9
-32 -9 -100 1 -157 23 -168 24 -157 13 9 -9 140 -51 209 -67 37 -8 80 10 96
40 26 48 -18 895 -50 979 -7 18 -9 15 -15 -19z"/>
<path d="M13390 13354 c-113 -46 -108 -61 23 -66 116 -5 161 -20 252 -89 30
-23 58 -39 61 -36 26 25 -54 125 -129 164 -50 25 -172 41 -207 27z"/>
<path d="M12335 13258 c-37 -20 -55 -52 -55 -96 0 -35 6 -49 29 -73 25 -25 37
-29 81 -29 44 0 56 4 81 29 47 48 37 130 -21 164 -32 19 -85 22 -115 5z"/>
<path d="M13348 12941 c-28 -25 -33 -36 -33 -76 0 -40 5 -51 33 -76 26 -23 42
-29 78 -29 39 0 51 5 81 35 32 32 35 39 30 78 -12 92 -119 130 -189 68z"/>
<path d="M18970 12584 c-117 -23 -249 -95 -300 -165 -67 -93 -32 -101 143 -30
67 27 174 63 237 81 118 32 140 43 140 66 0 33 -139 63 -220 48z"/>
<path d="M12379 12493 c-15 -37 -5 -121 19 -177 39 -87 222 -250 222 -197 0 5
-32 46 -71 92 -80 94 -115 161 -132 250 -13 65 -22 73 -38 32z"/>
<path d="M20455 12005 c-26 -25 -33 -59 -15 -70 6 -3 10 2 10 13 0 24 30 52
57 52 29 0 82 -39 120 -88 98 -128 75 -332 -37 -336 -47 -2 -35 -16 14 -16
149 0 168 262 29 405 -65 67 -136 83 -178 40z"/>
<path d="M11990 11855 c-18 -38 -24 -69 -24 -125 -1 -79 9 -114 25 -89 5 8 9
34 9 58 0 24 5 72 11 107 16 91 7 110 -21 49z"/>
<path d="M12146 11801 c-10 -11 -24 -37 -32 -58 -14 -39 -19 -149 -8 -177 12
-31 24 -15 24 32 0 27 9 85 21 131 11 45 19 84 17 87 -3 2 -13 -5 -22 -15z"/>
<path d="M12261 11701 c-25 -58 -53 -162 -46 -170 11 -11 34 27 59 97 41 114
30 173 -13 73z"/>
<path d="M12384 11598 c-57 -59 -104 -118 -104 -132 0 -14 22 -4 54 25 38 33
126 145 126 160 0 19 -18 7 -76 -53z"/>
<path d="M12471 11504 c-81 -82 -96 -108 -48 -87 53 24 147 126 147 160 0 24
-14 14 -99 -73z"/>
<path d="M19239 10962 c-1 -4 -1 -47 0 -97 3 -142 -39 -227 -154 -313 -68 -50
-76 -69 -29 -64 85 10 187 90 231 181 36 76 38 175 5 243 -20 41 -50 69 -53
50z"/>
<path d="M20118 10119 c-3 -8 -40 -60 -81 -115 -169 -224 -424 -443 -652 -561
-41 -21 -75 -41 -75 -46 0 -4 18 -43 40 -87 27 -55 46 -80 58 -80 30 0 233
105 307 159 209 152 354 367 402 595 14 67 15 168 1 135z"/>
<path d="M13861 9598 c-94 -194 -156 -394 -181 -578 -22 -159 18 -312 100
-385 l22 -20 -7 65 c-9 85 10 349 36 503 23 135 54 251 100 376 29 77 30 86
19 122 -7 22 -17 39 -22 39 -4 0 -35 -55 -67 -122z"/>
<path d="M14244 8975 c-53 -20 -107 -66 -103 -87 4 -15 9 -15 59 3 89 32 175
35 258 10 39 -12 78 -24 87 -27 25 -10 17 20 -12 48 -16 14 -44 34 -63 44 -47
24 -172 29 -226 9z"/>
<path d="M14892 8947 c-46 -55 -342 -803 -342 -862 0 -21 9 -40 26 -56 24 -22
34 -24 147 -27 142 -3 140 8 -6 31 -53 9 -102 19 -107 22 -18 11 -10 51 30
151 111 270 278 740 267 750 -2 3 -9 -2 -15 -9z"/>
<path d="M15371 8947 c-37 -14 -111 -73 -111 -88 0 -14 28 -11 98 11 84 26
155 25 247 -4 79 -25 101 -20 68 16 -43 48 -102 72 -187 75 -49 1 -94 -2 -115
-10z"/>
<path d="M14321 8646 c-48 -27 -66 -100 -35 -144 18 -26 65 -52 94 -52 35 0
79 28 96 62 45 87 -66 184 -155 134z"/>
<path d="M15365 8648 c-59 -32 -73 -105 -29 -157 74 -88 219 -13 183 96 -19
59 -100 91 -154 61z"/>
<path d="M16581 7944 c-31 -39 -28 -98 5 -129 73 -68 178 -17 160 78 -9 47
-26 48 -26 1 0 -55 -15 -74 -59 -74 -26 0 -44 7 -59 23 -29 31 -28 59 4 96 19
23 22 31 11 31 -9 0 -25 -12 -36 -26z"/>
<path d="M15150 7860 c-44 -117 -141 -195 -277 -221 -35 -6 -63 -15 -63 -20 0
-16 84 -31 133 -24 99 13 191 77 232 160 21 45 28 155 9 162 -6 2 -22 -24 -34
-57z"/>
<path d="M8052 5853 c-530 -494 -1012 -872 -1599 -1256 -154 -101 -203 -138
-130 -101 65 34 266 160 426 267 312 210 622 447 908 695 264 229 587 542 559
542 -3 0 -77 -66 -164 -147z"/>
<path d="M15511 4179 c-3 -64 544 -3381 564 -3424 11 -23 -10 125 -81 575
-135 852 -465 2821 -479 2855 -2 6 -4 3 -4 -6z"/>
<path d="M16860 2846 c-16 -25 -48 -82 -70 -127 -45 -94 -52 -156 -23 -216 28
-60 341 -304 485 -378 l86 -45 20 32 c11 18 23 45 27 60 5 21 17 30 58 43 63
20 140 68 165 102 17 23 23 25 65 19 88 -13 145 -74 133 -141 -8 -43 -102
-131 -222 -210 -116 -76 -124 -84 -39 -42 61 30 151 93 258 179 21 17 41 23
78 23 41 0 53 -5 80 -31 36 -36 50 -105 29 -145 -12 -23 -11 -23 5 -8 9 10 19
37 22 60 9 88 -60 155 -147 145 l-45 -6 3 42 c6 81 -48 135 -142 145 -56 6
-56 6 -56 39 0 37 -18 84 -32 84 -5 0 -6 5 -3 10 3 6 15 10 27 10 42 0 206 63
273 105 39 24 90 65 115 91 l45 48 -60 -53 c-73 -63 -212 -134 -317 -161 -174
-43 -319 -34 -454 29 -35 16 -66 27 -68 23 -2 -4 25 -32 60 -61 133 -109 181
-204 155 -308 -7 -26 -19 -58 -27 -71 l-15 -23 -78 41 c-78 40 -306 207 -412
299 -69 61 -90 116 -69 184 14 48 83 188 112 230 11 15 17 27 14 27 -3 0 -19
-20 -36 -44z m525 -367 c39 -5 95 -7 126 -4 53 6 58 5 78 -21 47 -60 9 -140
-96 -196 -88 -47 -89 -47 -95 20 -7 71 -26 110 -87 175 -40 44 -43 49 -21 44
14 -4 57 -12 95 -18z"/>
</g>
</svg>
