<?xml version="1.0" standalone="no"?>
<!DOCTYPE svg PUBLIC "-//W3C//DTD SVG 20010904//EN"
 "http://www.w3.org/TR/2001/REC-SVG-20010904/DTD/svg10.dtd">
<svg version="1.0" xmlns="http://www.w3.org/2000/svg"
 width="512.000000pt" height="346.000000pt" viewBox="0 0 512.000000 346.000000"
 preserveAspectRatio="xMidYMid meet">

<g transform="translate(0.000000,346.000000) scale(0.100000,-0.100000)"
fill="#000000" stroke="none">
<path d="M515 3433 c-55 -7 -138 -34 -195 -63 -133 -67 -248 -202 -292 -343
l-23 -72 0 -1225 0 -1225 23 -72 c57 -183 209 -329 408 -390 56 -17 149 -18
2124 -18 1977 0 2068 1 2125 18 194 60 335 192 403 378 l27 74 3 1202 c2 1043
0 1212 -13 1275 -41 200 -189 365 -390 435 l-80 28 -2045 1 c-1125 1 -2058 -1
-2075 -3z m4120 -336 c50 -23 110 -80 138 -132 l22 -40 0 -1195 0 -1195 -22
-40 c-28 -54 -100 -119 -149 -136 -58 -21 -4070 -21 -4128 0 -49 17 -121 82
-149 136 l-22 40 0 1195 0 1195 22 40 c40 76 111 128 198 148 11 3 927 4 2035
3 1917 -1 2017 -2 2055 -19z"/>
<path d="M1935 2160 c-136 -15 -251 -100 -295 -217 -58 -155 -43 -369 33 -490
73 -116 230 -175 409 -152 90 11 146 37 208 95 82 77 120 182 120 335 0 305
-176 463 -475 429z m168 -154 c42 -18 71 -50 99 -111 19 -43 22 -67 23 -165 0
-103 -3 -121 -26 -171 -16 -34 -41 -67 -65 -85 -32 -25 -48 -29 -113 -32 -101
-5 -151 20 -194 97 -28 49 -31 65 -35 161 -3 80 0 121 12 163 18 63 65 123
111 143 40 17 147 18 188 0z"/>
<path d="M2850 2160 c-149 -18 -270 -100 -323 -218 -53 -118 -56 -294 -7 -425
28 -75 104 -158 170 -186 70 -30 179 -42 287 -31 50 5 96 12 104 14 8 3 33 10
57 16 l42 11 0 219 0 220 -165 0 -165 0 0 -75 0 -75 80 0 80 0 0 -89 c0 -104
3 -101 -108 -101 -164 0 -236 87 -236 285 0 72 5 100 23 140 27 62 74 112 126
136 54 25 164 25 245 0 l61 -19 9 21 c4 12 17 43 28 68 l20 46 -52 16 c-47 15
-178 38 -201 35 -5 0 -39 -4 -75 -8z"/>
<path d="M3615 2160 c-136 -15 -251 -100 -295 -217 -58 -155 -43 -369 33 -490
73 -116 230 -175 409 -152 90 11 146 37 208 95 82 77 120 182 120 335 0 305
-176 463 -475 429z m168 -154 c42 -18 71 -50 99 -111 19 -43 22 -67 23 -165 0
-103 -3 -121 -26 -171 -16 -34 -41 -67 -65 -85 -32 -25 -48 -29 -113 -32 -101
-5 -151 20 -194 97 -28 49 -31 65 -35 161 -3 80 0 121 12 163 18 63 65 123
111 143 40 17 147 18 188 0z"/>
<path d="M1030 1730 l0 -430 260 0 260 0 0 75 0 75 -170 0 -170 0 0 355 0 355
-90 0 -90 0 0 -430z"/>
</g>
</svg>
